<svg xmlns="http://www.w3.org/2000/svg" width="508.8" height="509.041" viewBox="0 0 508.8 509.041">
  <g id="blocket-img" transform="translate(-1.6 510.566)">
    <path id="Path_19" data-name="Path 19" d="M229-510.4c-35.4,3.2-62.8,8.9-89.5,18.6-42,15.4-77.7,43.6-99.5,78.9C21.2-382.7,9.8-348.3,3.8-303.7,1.9-289.9,1.6-282.9,1.6-256s.3,33.9,2.2,47.7c6,44.6,17.4,79,36.2,109.2C62.2-63.3,97.7-35.3,141-19.7c21.7,7.8,46.8,13.5,75,16.9,14,1.7,66,1.7,80,0q58.95-7.2,99.1-27.3c32.1-16,59.2-40.4,76.9-68.9,18.8-30.5,30.2-64.7,36.2-109.3,1.9-13.8,2.2-20.9,2.2-47.7,0-34.2-1.4-50.3-6.9-75.6C484.2-421,434.9-475.2,351.7-498.4c-31.4-8.8-52.6-11.6-90.2-12.1C246.1-510.6,231.5-510.6,229-510.4Zm15,163.1v22.8h18.2c18.7,0,24.2.7,36.8,4.7,24.8,7.8,41.4,25.7,48,51.6a129.255,129.255,0,0,1,3.1,41.6c-3.7,37.3-19.6,60.1-49.2,70.1-16.1,5.5-20.6,5.9-69.9,5.9l-45.5.1L185.2-259c-.1-59.7,0-109.1.3-109.8.3-.9,7.2-1.2,29.5-1.2h29Z" fill="#f04c5a"/>
    <path id="Path_20" data-name="Path 20" d="M245.8-268.4c-1.7.5-1.8,2.9-1.8,30.8v30.3l3.8.7c12.8,2.1,25.9-1.5,32.5-8.9,4.7-5.2,6.2-10.5,6.2-22,0-9.4-.3-11.7-2.3-16.1-4.7-10.4-12.4-14.7-27.2-15A80.6,80.6,0,0,0,245.8-268.4Z" fill="#f04c5a"/>
  </g>
</svg>
