<svg xmlns="http://www.w3.org/2000/svg" xmlns:xlink="http://www.w3.org/1999/xlink" width="276" height="152" viewBox="0 0 276 152">
  <defs>
    <clipPath id="clip-path">
      <rect width="276" height="152" fill="none"/>
    </clipPath>
  </defs>
  <g id="dots2" clip-path="url(#clip-path)">
    <g transform="translate(-1294 -93)">
      <circle id="Ellipse_5" data-name="Ellipse 5" cx="12.5" cy="12.5" r="12.5" transform="translate(1294 93)" fill="#edf3f3"/>
    </g>
    <g transform="translate(-1232 -93)">
      <circle id="Ellipse_5-2" data-name="Ellipse 5" cx="12.5" cy="12.5" r="12.5" transform="translate(1294 93)" fill="#edf3f3"/>
    </g>
    <g transform="translate(-1170 -93)">
      <circle id="Ellipse_5-3" data-name="Ellipse 5" cx="12.5" cy="12.5" r="12.5" transform="translate(1294 93)" fill="#edf3f3"/>
    </g>
    <g transform="translate(-1108 -93)">
      <circle id="Ellipse_5-4" data-name="Ellipse 5" cx="12.5" cy="12.5" r="12.5" transform="translate(1294 93)" fill="#edf3f3"/>
    </g>
    <g transform="translate(-1046 -93)">
      <circle id="Ellipse_5-5" data-name="Ellipse 5" cx="12.5" cy="12.5" r="12.5" transform="translate(1294 93)" fill="#edf3f3"/>
    </g>
    <g transform="translate(-1294 -31)">
      <circle id="Ellipse_5-6" data-name="Ellipse 5" cx="12.5" cy="12.5" r="12.5" transform="translate(1294 93)" fill="#edf3f3"/>
    </g>
    <g transform="translate(-1232 -31)">
      <circle id="Ellipse_5-7" data-name="Ellipse 5" cx="12.5" cy="12.5" r="12.5" transform="translate(1294 93)" fill="#edf3f3"/>
    </g>
    <g transform="translate(-1170 -31)">
      <circle id="Ellipse_5-8" data-name="Ellipse 5" cx="12.5" cy="12.5" r="12.5" transform="translate(1294 93)" fill="#edf3f3"/>
    </g>
    <g transform="translate(-1108 -31)">
      <circle id="Ellipse_5-9" data-name="Ellipse 5" cx="12.5" cy="12.5" r="12.5" transform="translate(1294 93)" fill="#edf3f3"/>
    </g>
    <g transform="translate(-1046 -31)">
      <circle id="Ellipse_5-10" data-name="Ellipse 5" cx="12.5" cy="12.5" r="12.5" transform="translate(1294 93)" fill="#edf3f3"/>
    </g>
    <g transform="translate(-1294 31)">
      <circle id="Ellipse_5-11" data-name="Ellipse 5" cx="12.5" cy="12.5" r="12.5" transform="translate(1294 93)" fill="#edf3f3"/>
    </g>
    <g transform="translate(-1232 31)">
      <circle id="Ellipse_5-12" data-name="Ellipse 5" cx="12.5" cy="12.5" r="12.5" transform="translate(1294 93)" fill="#edf3f3"/>
    </g>
    <g transform="translate(-1170 31)">
      <circle id="Ellipse_5-13" data-name="Ellipse 5" cx="12.5" cy="12.5" r="12.5" transform="translate(1294 93)" fill="#edf3f3"/>
    </g>
    <g transform="translate(-1108 31)">
      <circle id="Ellipse_5-14" data-name="Ellipse 5" cx="12.5" cy="12.5" r="12.5" transform="translate(1294 93)" fill="#edf3f3"/>
    </g>
    <g transform="translate(-1046 31)">
      <circle id="Ellipse_5-15" data-name="Ellipse 5" cx="12.5" cy="12.5" r="12.5" transform="translate(1294 93)" fill="#edf3f3"/>
    </g>
  </g>
</svg>
