<svg xmlns="http://www.w3.org/2000/svg" xmlns:xlink="http://www.w3.org/1999/xlink" width="256" height="338" viewBox="0 0 256 338">
  <defs>
    <clipPath id="clip-path">
      <rect width="256" height="338" fill="none"/>
    </clipPath>
  </defs>
  <g id="Repeat_Grid_1" data-name="Repeat Grid 1" clip-path="url(#clip-path)">
    <g transform="translate(-242 -138)">
      <ellipse id="Ellipse_4" data-name="Ellipse 4" cx="7" cy="7.5" rx="7" ry="7.5" transform="translate(242 138)" fill="#edf3f3"/>
      <ellipse id="Ellipse_4-2" data-name="Ellipse 4" cx="7" cy="7.5" rx="7" ry="7.5" transform="translate(276 138)" fill="#edf3f3"/>
      <ellipse id="Ellipse_4-3" data-name="Ellipse 4" cx="7" cy="7.5" rx="7" ry="7.5" transform="translate(310 138)" fill="#edf3f3"/>
      <ellipse id="Ellipse_4-4" data-name="Ellipse 4" cx="7" cy="7.5" rx="7" ry="7.5" transform="translate(344 138)" fill="#edf3f3"/>
      <ellipse id="Ellipse_4-5" data-name="Ellipse 4" cx="7" cy="7.5" rx="7" ry="7.5" transform="translate(378 138)" fill="#edf3f3"/>
      <ellipse id="Ellipse_4-6" data-name="Ellipse 4" cx="7" cy="7.5" rx="7" ry="7.5" transform="translate(412 138)" fill="#edf3f3"/>
      <ellipse id="Ellipse_4-7" data-name="Ellipse 4" cx="7" cy="7.5" rx="7" ry="7.5" transform="translate(446 138)" fill="#edf3f3"/>
      <ellipse id="Ellipse_4-8" data-name="Ellipse 4" cx="7" cy="7.5" rx="7" ry="7.5" transform="translate(480 138)" fill="#edf3f3"/>
      <ellipse id="Ellipse_4-9" data-name="Ellipse 4" cx="7" cy="7.5" rx="7" ry="7.5" transform="translate(242 173)" fill="#edf3f3"/>
      <ellipse id="Ellipse_4-10" data-name="Ellipse 4" cx="7" cy="7.5" rx="7" ry="7.5" transform="translate(276 173)" fill="#edf3f3"/>
      <ellipse id="Ellipse_4-11" data-name="Ellipse 4" cx="7" cy="7.5" rx="7" ry="7.5" transform="translate(310 173)" fill="#edf3f3"/>
      <ellipse id="Ellipse_4-12" data-name="Ellipse 4" cx="7" cy="7.5" rx="7" ry="7.5" transform="translate(344 173)" fill="#edf3f3"/>
      <ellipse id="Ellipse_4-13" data-name="Ellipse 4" cx="7" cy="7.5" rx="7" ry="7.5" transform="translate(378 173)" fill="#edf3f3"/>
      <ellipse id="Ellipse_4-14" data-name="Ellipse 4" cx="7" cy="7.5" rx="7" ry="7.5" transform="translate(412 173)" fill="#edf3f3"/>
      <ellipse id="Ellipse_4-15" data-name="Ellipse 4" cx="7" cy="7.5" rx="7" ry="7.5" transform="translate(446 173)" fill="#edf3f3"/>
      <ellipse id="Ellipse_4-16" data-name="Ellipse 4" cx="7" cy="7.5" rx="7" ry="7.5" transform="translate(480 173)" fill="#edf3f3"/>
      <ellipse id="Ellipse_4-17" data-name="Ellipse 4" cx="7" cy="7.5" rx="7" ry="7.5" transform="translate(242 208)" fill="#edf3f3"/>
      <ellipse id="Ellipse_4-18" data-name="Ellipse 4" cx="7" cy="7.5" rx="7" ry="7.5" transform="translate(276 208)" fill="#edf3f3"/>
      <ellipse id="Ellipse_4-19" data-name="Ellipse 4" cx="7" cy="7.5" rx="7" ry="7.5" transform="translate(310 208)" fill="#edf3f3"/>
      <ellipse id="Ellipse_4-20" data-name="Ellipse 4" cx="7" cy="7.5" rx="7" ry="7.5" transform="translate(344 208)" fill="#edf3f3"/>
      <ellipse id="Ellipse_4-21" data-name="Ellipse 4" cx="7" cy="7.5" rx="7" ry="7.5" transform="translate(378 208)" fill="#edf3f3"/>
      <ellipse id="Ellipse_4-22" data-name="Ellipse 4" cx="7" cy="7.5" rx="7" ry="7.5" transform="translate(412 208)" fill="#edf3f3"/>
      <ellipse id="Ellipse_4-23" data-name="Ellipse 4" cx="7" cy="7.5" rx="7" ry="7.5" transform="translate(446 208)" fill="#edf3f3"/>
      <ellipse id="Ellipse_4-24" data-name="Ellipse 4" cx="7" cy="7.5" rx="7" ry="7.5" transform="translate(480 208)" fill="#edf3f3"/>
      <ellipse id="Ellipse_4-25" data-name="Ellipse 4" cx="7" cy="7.5" rx="7" ry="7.5" transform="translate(242 243)" fill="#edf3f3"/>
      <ellipse id="Ellipse_4-26" data-name="Ellipse 4" cx="7" cy="7.5" rx="7" ry="7.5" transform="translate(276 243)" fill="#edf3f3"/>
      <ellipse id="Ellipse_4-27" data-name="Ellipse 4" cx="7" cy="7.5" rx="7" ry="7.5" transform="translate(310 243)" fill="#edf3f3"/>
      <ellipse id="Ellipse_4-28" data-name="Ellipse 4" cx="7" cy="7.5" rx="7" ry="7.5" transform="translate(344 243)" fill="#edf3f3"/>
      <ellipse id="Ellipse_4-29" data-name="Ellipse 4" cx="7" cy="7.5" rx="7" ry="7.5" transform="translate(378 243)" fill="#edf3f3"/>
      <ellipse id="Ellipse_4-30" data-name="Ellipse 4" cx="7" cy="7.5" rx="7" ry="7.5" transform="translate(412 243)" fill="#edf3f3"/>
      <ellipse id="Ellipse_4-31" data-name="Ellipse 4" cx="7" cy="7.5" rx="7" ry="7.5" transform="translate(446 243)" fill="#edf3f3"/>
      <ellipse id="Ellipse_4-32" data-name="Ellipse 4" cx="7" cy="7.5" rx="7" ry="7.5" transform="translate(480 243)" fill="#edf3f3"/>
      <ellipse id="Ellipse_4-33" data-name="Ellipse 4" cx="7" cy="7.5" rx="7" ry="7.5" transform="translate(242 278)" fill="#edf3f3"/>
      <ellipse id="Ellipse_4-34" data-name="Ellipse 4" cx="7" cy="7.5" rx="7" ry="7.5" transform="translate(276 278)" fill="#edf3f3"/>
      <ellipse id="Ellipse_4-35" data-name="Ellipse 4" cx="7" cy="7.5" rx="7" ry="7.5" transform="translate(310 278)" fill="#edf3f3"/>
      <ellipse id="Ellipse_4-36" data-name="Ellipse 4" cx="7" cy="7.5" rx="7" ry="7.5" transform="translate(344 278)" fill="#edf3f3"/>
      <ellipse id="Ellipse_4-37" data-name="Ellipse 4" cx="7" cy="7.5" rx="7" ry="7.5" transform="translate(378 278)" fill="#edf3f3"/>
      <ellipse id="Ellipse_4-38" data-name="Ellipse 4" cx="7" cy="7.5" rx="7" ry="7.5" transform="translate(412 278)" fill="#edf3f3"/>
      <ellipse id="Ellipse_4-39" data-name="Ellipse 4" cx="7" cy="7.5" rx="7" ry="7.5" transform="translate(446 278)" fill="#edf3f3"/>
      <ellipse id="Ellipse_4-40" data-name="Ellipse 4" cx="7" cy="7.5" rx="7" ry="7.5" transform="translate(480 278)" fill="#edf3f3"/>
      <ellipse id="Ellipse_4-41" data-name="Ellipse 4" cx="7" cy="7.5" rx="7" ry="7.5" transform="translate(242 313)" fill="#edf3f3"/>
      <ellipse id="Ellipse_4-42" data-name="Ellipse 4" cx="7" cy="7.5" rx="7" ry="7.5" transform="translate(276 313)" fill="#edf3f3"/>
      <ellipse id="Ellipse_4-43" data-name="Ellipse 4" cx="7" cy="7.5" rx="7" ry="7.5" transform="translate(310 313)" fill="#edf3f3"/>
      <ellipse id="Ellipse_4-44" data-name="Ellipse 4" cx="7" cy="7.5" rx="7" ry="7.5" transform="translate(344 313)" fill="#edf3f3"/>
      <ellipse id="Ellipse_4-45" data-name="Ellipse 4" cx="7" cy="7.5" rx="7" ry="7.5" transform="translate(378 313)" fill="#edf3f3"/>
      <ellipse id="Ellipse_4-46" data-name="Ellipse 4" cx="7" cy="7.5" rx="7" ry="7.5" transform="translate(412 313)" fill="#edf3f3"/>
      <ellipse id="Ellipse_4-47" data-name="Ellipse 4" cx="7" cy="7.5" rx="7" ry="7.5" transform="translate(446 313)" fill="#edf3f3"/>
      <ellipse id="Ellipse_4-48" data-name="Ellipse 4" cx="7" cy="7.5" rx="7" ry="7.5" transform="translate(480 313)" fill="#edf3f3"/>
      <ellipse id="Ellipse_4-49" data-name="Ellipse 4" cx="7" cy="7.5" rx="7" ry="7.5" transform="translate(242 348)" fill="#edf3f3"/>
      <ellipse id="Ellipse_4-50" data-name="Ellipse 4" cx="7" cy="7.5" rx="7" ry="7.5" transform="translate(276 348)" fill="#edf3f3"/>
      <ellipse id="Ellipse_4-51" data-name="Ellipse 4" cx="7" cy="7.5" rx="7" ry="7.5" transform="translate(310 348)" fill="#edf3f3"/>
      <ellipse id="Ellipse_4-52" data-name="Ellipse 4" cx="7" cy="7.5" rx="7" ry="7.5" transform="translate(344 348)" fill="#edf3f3"/>
      <ellipse id="Ellipse_4-53" data-name="Ellipse 4" cx="7" cy="7.5" rx="7" ry="7.5" transform="translate(378 348)" fill="#edf3f3"/>
      <ellipse id="Ellipse_4-54" data-name="Ellipse 4" cx="7" cy="7.5" rx="7" ry="7.5" transform="translate(412 348)" fill="#edf3f3"/>
      <ellipse id="Ellipse_4-55" data-name="Ellipse 4" cx="7" cy="7.5" rx="7" ry="7.5" transform="translate(446 348)" fill="#edf3f3"/>
      <ellipse id="Ellipse_4-56" data-name="Ellipse 4" cx="7" cy="7.5" rx="7" ry="7.5" transform="translate(480 348)" fill="#edf3f3"/>
      <ellipse id="Ellipse_4-57" data-name="Ellipse 4" cx="7" cy="7.5" rx="7" ry="7.5" transform="translate(242 383)" fill="#edf3f3"/>
      <ellipse id="Ellipse_4-58" data-name="Ellipse 4" cx="7" cy="7.5" rx="7" ry="7.5" transform="translate(276 383)" fill="#edf3f3"/>
      <ellipse id="Ellipse_4-59" data-name="Ellipse 4" cx="7" cy="7.5" rx="7" ry="7.5" transform="translate(310 383)" fill="#edf3f3"/>
      <ellipse id="Ellipse_4-60" data-name="Ellipse 4" cx="7" cy="7.5" rx="7" ry="7.5" transform="translate(344 383)" fill="#edf3f3"/>
      <ellipse id="Ellipse_4-61" data-name="Ellipse 4" cx="7" cy="7.5" rx="7" ry="7.5" transform="translate(378 383)" fill="#edf3f3"/>
      <ellipse id="Ellipse_4-62" data-name="Ellipse 4" cx="7" cy="7.5" rx="7" ry="7.5" transform="translate(412 383)" fill="#edf3f3"/>
      <ellipse id="Ellipse_4-63" data-name="Ellipse 4" cx="7" cy="7.5" rx="7" ry="7.5" transform="translate(446 383)" fill="#edf3f3"/>
      <ellipse id="Ellipse_4-64" data-name="Ellipse 4" cx="7" cy="7.5" rx="7" ry="7.5" transform="translate(480 383)" fill="#edf3f3"/>
      <ellipse id="Ellipse_4-65" data-name="Ellipse 4" cx="7" cy="7.5" rx="7" ry="7.5" transform="translate(242 418)" fill="#edf3f3"/>
      <ellipse id="Ellipse_4-66" data-name="Ellipse 4" cx="7" cy="7.5" rx="7" ry="7.5" transform="translate(276 418)" fill="#edf3f3"/>
      <ellipse id="Ellipse_4-67" data-name="Ellipse 4" cx="7" cy="7.5" rx="7" ry="7.5" transform="translate(310 418)" fill="#edf3f3"/>
      <ellipse id="Ellipse_4-68" data-name="Ellipse 4" cx="7" cy="7.5" rx="7" ry="7.5" transform="translate(344 418)" fill="#edf3f3"/>
      <ellipse id="Ellipse_4-69" data-name="Ellipse 4" cx="7" cy="7.5" rx="7" ry="7.5" transform="translate(378 418)" fill="#edf3f3"/>
      <ellipse id="Ellipse_4-70" data-name="Ellipse 4" cx="7" cy="7.5" rx="7" ry="7.5" transform="translate(412 418)" fill="#edf3f3"/>
      <ellipse id="Ellipse_4-71" data-name="Ellipse 4" cx="7" cy="7.5" rx="7" ry="7.5" transform="translate(446 418)" fill="#edf3f3"/>
      <ellipse id="Ellipse_4-72" data-name="Ellipse 4" cx="7" cy="7.5" rx="7" ry="7.5" transform="translate(480 418)" fill="#edf3f3"/>
    </g>
    <g transform="translate(-242 177)">
      <ellipse id="Ellipse_4-73" data-name="Ellipse 4" cx="7" cy="7.5" rx="7" ry="7.5" transform="translate(242 138)" fill="#edf3f3"/>
      <ellipse id="Ellipse_4-74" data-name="Ellipse 4" cx="7" cy="7.5" rx="7" ry="7.5" transform="translate(276 138)" fill="#edf3f3"/>
      <ellipse id="Ellipse_4-75" data-name="Ellipse 4" cx="7" cy="7.5" rx="7" ry="7.5" transform="translate(310 138)" fill="#edf3f3"/>
      <ellipse id="Ellipse_4-76" data-name="Ellipse 4" cx="7" cy="7.5" rx="7" ry="7.5" transform="translate(344 138)" fill="#edf3f3"/>
      <ellipse id="Ellipse_4-77" data-name="Ellipse 4" cx="7" cy="7.5" rx="7" ry="7.5" transform="translate(378 138)" fill="#edf3f3"/>
      <ellipse id="Ellipse_4-78" data-name="Ellipse 4" cx="7" cy="7.5" rx="7" ry="7.5" transform="translate(412 138)" fill="#edf3f3"/>
      <ellipse id="Ellipse_4-79" data-name="Ellipse 4" cx="7" cy="7.5" rx="7" ry="7.5" transform="translate(446 138)" fill="#edf3f3"/>
      <ellipse id="Ellipse_4-80" data-name="Ellipse 4" cx="7" cy="7.5" rx="7" ry="7.5" transform="translate(480 138)" fill="#edf3f3"/>
      <ellipse id="Ellipse_4-81" data-name="Ellipse 4" cx="7" cy="7.5" rx="7" ry="7.5" transform="translate(242 173)" fill="#edf3f3"/>
      <ellipse id="Ellipse_4-82" data-name="Ellipse 4" cx="7" cy="7.5" rx="7" ry="7.5" transform="translate(276 173)" fill="#edf3f3"/>
      <ellipse id="Ellipse_4-83" data-name="Ellipse 4" cx="7" cy="7.5" rx="7" ry="7.5" transform="translate(310 173)" fill="#edf3f3"/>
      <ellipse id="Ellipse_4-84" data-name="Ellipse 4" cx="7" cy="7.5" rx="7" ry="7.5" transform="translate(344 173)" fill="#edf3f3"/>
      <ellipse id="Ellipse_4-85" data-name="Ellipse 4" cx="7" cy="7.5" rx="7" ry="7.5" transform="translate(378 173)" fill="#edf3f3"/>
      <ellipse id="Ellipse_4-86" data-name="Ellipse 4" cx="7" cy="7.5" rx="7" ry="7.5" transform="translate(412 173)" fill="#edf3f3"/>
      <ellipse id="Ellipse_4-87" data-name="Ellipse 4" cx="7" cy="7.5" rx="7" ry="7.5" transform="translate(446 173)" fill="#edf3f3"/>
      <ellipse id="Ellipse_4-88" data-name="Ellipse 4" cx="7" cy="7.5" rx="7" ry="7.5" transform="translate(480 173)" fill="#edf3f3"/>
      <ellipse id="Ellipse_4-89" data-name="Ellipse 4" cx="7" cy="7.5" rx="7" ry="7.5" transform="translate(242 208)" fill="#edf3f3"/>
      <ellipse id="Ellipse_4-90" data-name="Ellipse 4" cx="7" cy="7.5" rx="7" ry="7.5" transform="translate(276 208)" fill="#edf3f3"/>
      <ellipse id="Ellipse_4-91" data-name="Ellipse 4" cx="7" cy="7.5" rx="7" ry="7.5" transform="translate(310 208)" fill="#edf3f3"/>
      <ellipse id="Ellipse_4-92" data-name="Ellipse 4" cx="7" cy="7.5" rx="7" ry="7.5" transform="translate(344 208)" fill="#edf3f3"/>
      <ellipse id="Ellipse_4-93" data-name="Ellipse 4" cx="7" cy="7.5" rx="7" ry="7.5" transform="translate(378 208)" fill="#edf3f3"/>
      <ellipse id="Ellipse_4-94" data-name="Ellipse 4" cx="7" cy="7.5" rx="7" ry="7.5" transform="translate(412 208)" fill="#edf3f3"/>
      <ellipse id="Ellipse_4-95" data-name="Ellipse 4" cx="7" cy="7.5" rx="7" ry="7.5" transform="translate(446 208)" fill="#edf3f3"/>
      <ellipse id="Ellipse_4-96" data-name="Ellipse 4" cx="7" cy="7.5" rx="7" ry="7.5" transform="translate(480 208)" fill="#edf3f3"/>
      <ellipse id="Ellipse_4-97" data-name="Ellipse 4" cx="7" cy="7.5" rx="7" ry="7.5" transform="translate(242 243)" fill="#edf3f3"/>
      <ellipse id="Ellipse_4-98" data-name="Ellipse 4" cx="7" cy="7.5" rx="7" ry="7.5" transform="translate(276 243)" fill="#edf3f3"/>
      <ellipse id="Ellipse_4-99" data-name="Ellipse 4" cx="7" cy="7.5" rx="7" ry="7.5" transform="translate(310 243)" fill="#edf3f3"/>
      <ellipse id="Ellipse_4-100" data-name="Ellipse 4" cx="7" cy="7.5" rx="7" ry="7.5" transform="translate(344 243)" fill="#edf3f3"/>
      <ellipse id="Ellipse_4-101" data-name="Ellipse 4" cx="7" cy="7.5" rx="7" ry="7.5" transform="translate(378 243)" fill="#edf3f3"/>
      <ellipse id="Ellipse_4-102" data-name="Ellipse 4" cx="7" cy="7.5" rx="7" ry="7.5" transform="translate(412 243)" fill="#edf3f3"/>
      <ellipse id="Ellipse_4-103" data-name="Ellipse 4" cx="7" cy="7.5" rx="7" ry="7.5" transform="translate(446 243)" fill="#edf3f3"/>
      <ellipse id="Ellipse_4-104" data-name="Ellipse 4" cx="7" cy="7.5" rx="7" ry="7.5" transform="translate(480 243)" fill="#edf3f3"/>
      <ellipse id="Ellipse_4-105" data-name="Ellipse 4" cx="7" cy="7.5" rx="7" ry="7.5" transform="translate(242 278)" fill="#edf3f3"/>
      <ellipse id="Ellipse_4-106" data-name="Ellipse 4" cx="7" cy="7.5" rx="7" ry="7.5" transform="translate(276 278)" fill="#edf3f3"/>
      <ellipse id="Ellipse_4-107" data-name="Ellipse 4" cx="7" cy="7.5" rx="7" ry="7.5" transform="translate(310 278)" fill="#edf3f3"/>
      <ellipse id="Ellipse_4-108" data-name="Ellipse 4" cx="7" cy="7.5" rx="7" ry="7.5" transform="translate(344 278)" fill="#edf3f3"/>
      <ellipse id="Ellipse_4-109" data-name="Ellipse 4" cx="7" cy="7.5" rx="7" ry="7.5" transform="translate(378 278)" fill="#edf3f3"/>
      <ellipse id="Ellipse_4-110" data-name="Ellipse 4" cx="7" cy="7.5" rx="7" ry="7.5" transform="translate(412 278)" fill="#edf3f3"/>
      <ellipse id="Ellipse_4-111" data-name="Ellipse 4" cx="7" cy="7.5" rx="7" ry="7.5" transform="translate(446 278)" fill="#edf3f3"/>
      <ellipse id="Ellipse_4-112" data-name="Ellipse 4" cx="7" cy="7.5" rx="7" ry="7.5" transform="translate(480 278)" fill="#edf3f3"/>
      <ellipse id="Ellipse_4-113" data-name="Ellipse 4" cx="7" cy="7.5" rx="7" ry="7.5" transform="translate(242 313)" fill="#edf3f3"/>
      <ellipse id="Ellipse_4-114" data-name="Ellipse 4" cx="7" cy="7.5" rx="7" ry="7.5" transform="translate(276 313)" fill="#edf3f3"/>
      <ellipse id="Ellipse_4-115" data-name="Ellipse 4" cx="7" cy="7.5" rx="7" ry="7.5" transform="translate(310 313)" fill="#edf3f3"/>
      <ellipse id="Ellipse_4-116" data-name="Ellipse 4" cx="7" cy="7.5" rx="7" ry="7.5" transform="translate(344 313)" fill="#edf3f3"/>
      <ellipse id="Ellipse_4-117" data-name="Ellipse 4" cx="7" cy="7.5" rx="7" ry="7.5" transform="translate(378 313)" fill="#edf3f3"/>
      <ellipse id="Ellipse_4-118" data-name="Ellipse 4" cx="7" cy="7.5" rx="7" ry="7.5" transform="translate(412 313)" fill="#edf3f3"/>
      <ellipse id="Ellipse_4-119" data-name="Ellipse 4" cx="7" cy="7.5" rx="7" ry="7.5" transform="translate(446 313)" fill="#edf3f3"/>
      <ellipse id="Ellipse_4-120" data-name="Ellipse 4" cx="7" cy="7.5" rx="7" ry="7.5" transform="translate(480 313)" fill="#edf3f3"/>
      <ellipse id="Ellipse_4-121" data-name="Ellipse 4" cx="7" cy="7.5" rx="7" ry="7.5" transform="translate(242 348)" fill="#edf3f3"/>
      <ellipse id="Ellipse_4-122" data-name="Ellipse 4" cx="7" cy="7.5" rx="7" ry="7.5" transform="translate(276 348)" fill="#edf3f3"/>
      <ellipse id="Ellipse_4-123" data-name="Ellipse 4" cx="7" cy="7.5" rx="7" ry="7.5" transform="translate(310 348)" fill="#edf3f3"/>
      <ellipse id="Ellipse_4-124" data-name="Ellipse 4" cx="7" cy="7.5" rx="7" ry="7.5" transform="translate(344 348)" fill="#edf3f3"/>
      <ellipse id="Ellipse_4-125" data-name="Ellipse 4" cx="7" cy="7.5" rx="7" ry="7.5" transform="translate(378 348)" fill="#edf3f3"/>
      <ellipse id="Ellipse_4-126" data-name="Ellipse 4" cx="7" cy="7.5" rx="7" ry="7.5" transform="translate(412 348)" fill="#edf3f3"/>
      <ellipse id="Ellipse_4-127" data-name="Ellipse 4" cx="7" cy="7.5" rx="7" ry="7.5" transform="translate(446 348)" fill="#edf3f3"/>
      <ellipse id="Ellipse_4-128" data-name="Ellipse 4" cx="7" cy="7.5" rx="7" ry="7.5" transform="translate(480 348)" fill="#edf3f3"/>
      <ellipse id="Ellipse_4-129" data-name="Ellipse 4" cx="7" cy="7.5" rx="7" ry="7.5" transform="translate(242 383)" fill="#edf3f3"/>
      <ellipse id="Ellipse_4-130" data-name="Ellipse 4" cx="7" cy="7.5" rx="7" ry="7.5" transform="translate(276 383)" fill="#edf3f3"/>
      <ellipse id="Ellipse_4-131" data-name="Ellipse 4" cx="7" cy="7.5" rx="7" ry="7.5" transform="translate(310 383)" fill="#edf3f3"/>
      <ellipse id="Ellipse_4-132" data-name="Ellipse 4" cx="7" cy="7.5" rx="7" ry="7.5" transform="translate(344 383)" fill="#edf3f3"/>
      <ellipse id="Ellipse_4-133" data-name="Ellipse 4" cx="7" cy="7.5" rx="7" ry="7.5" transform="translate(378 383)" fill="#edf3f3"/>
      <ellipse id="Ellipse_4-134" data-name="Ellipse 4" cx="7" cy="7.5" rx="7" ry="7.5" transform="translate(412 383)" fill="#edf3f3"/>
      <ellipse id="Ellipse_4-135" data-name="Ellipse 4" cx="7" cy="7.5" rx="7" ry="7.5" transform="translate(446 383)" fill="#edf3f3"/>
      <ellipse id="Ellipse_4-136" data-name="Ellipse 4" cx="7" cy="7.5" rx="7" ry="7.5" transform="translate(480 383)" fill="#edf3f3"/>
      <ellipse id="Ellipse_4-137" data-name="Ellipse 4" cx="7" cy="7.5" rx="7" ry="7.5" transform="translate(242 418)" fill="#edf3f3"/>
      <ellipse id="Ellipse_4-138" data-name="Ellipse 4" cx="7" cy="7.5" rx="7" ry="7.5" transform="translate(276 418)" fill="#edf3f3"/>
      <ellipse id="Ellipse_4-139" data-name="Ellipse 4" cx="7" cy="7.5" rx="7" ry="7.5" transform="translate(310 418)" fill="#edf3f3"/>
      <ellipse id="Ellipse_4-140" data-name="Ellipse 4" cx="7" cy="7.5" rx="7" ry="7.5" transform="translate(344 418)" fill="#edf3f3"/>
      <ellipse id="Ellipse_4-141" data-name="Ellipse 4" cx="7" cy="7.5" rx="7" ry="7.5" transform="translate(378 418)" fill="#edf3f3"/>
      <ellipse id="Ellipse_4-142" data-name="Ellipse 4" cx="7" cy="7.5" rx="7" ry="7.5" transform="translate(412 418)" fill="#edf3f3"/>
      <ellipse id="Ellipse_4-143" data-name="Ellipse 4" cx="7" cy="7.5" rx="7" ry="7.5" transform="translate(446 418)" fill="#edf3f3"/>
      <ellipse id="Ellipse_4-144" data-name="Ellipse 4" cx="7" cy="7.5" rx="7" ry="7.5" transform="translate(480 418)" fill="#edf3f3"/>
    </g>
  </g>
</svg>
