<svg xmlns="http://www.w3.org/2000/svg" width="2062.782" height="2418.612" viewBox="0 0 2062.782 2418.612">
  <path id="productBackground" d="M2047.6,381.625s-541.716-78.586-546.453,87.2-411.857,55.9-680.278,24.318-634.8-75.206-573.218,44.794,937.138,396.58,1045.324,642.919-812.655,286.772-812.655,286.772l-482.9,132.035-.006,246.986s72.7,137,73.728,278.672c1.588,218.938,909.886,254.369,898.976,586.309-7.9,240.5,898.058-207.4,954.9-314.117,208.189-390.914,146.727-394.466-56.52-433.482s-543.316,624.334-703.623,433.482-441.625-15.925-446.624-398,747.069,60.511,1047.113-439.367c85.512-142.465,159.653-526.55,159.653-526.55V795.549l25.151-125.68s-4.99-58.01,67.694-131.929S2047.6,381.625,2047.6,381.625Z" transform="translate(2.587 -363.013)" fill="#edf3f3"/>
</svg>
