<svg xmlns="http://www.w3.org/2000/svg" width="509" height="508" viewBox="0 0 509 508">
  <g id="tradera-img" transform="translate(-78.112 432)">
    <rect id="Rectangle_45" data-name="Rectangle 45" width="509" height="508" rx="58" transform="translate(78.112 -432)" fill="#ffcf3c"/>
    <path id="Path_21" data-name="Path 21" d="M183.2-423.6c-1.5,2-3.2,12.1-9.2,54.3-4,28.5-7.5,53.2-7.7,55l-.5,3.2-17.4.3c-15.8.3-17.5.5-19.3,2.3-1.6,1.6-2.5,6.3-5,25.5-3.7,28.1-3.8,31.5-1.2,33,1.1.6,9,1,18.5,1H158l-.5,2.7c-.3,1.6-2.8,20.6-5.6,42.3-4.6,35.4-5,40.9-4.6,53,.6,15.6,2.1,22.1,7.7,33.7,7.2,14.7,20.7,25.4,38,30,9.3,2.6,41.8,2.5,54.5,0,19.7-4,38-11.7,51.4-21.6,6.6-4.9,17.7-15.9,21.9-21.6l2.1-3,.1,2.5c0,1.4-.9,9.5-2,18-2.5,19.1-2.5,19.5,0,22,1.9,1.9,3.3,2,31,2h29.1l2.3-2.3c2.8-2.8,2.5-1.3,7.6-43.2,5.5-44.7,9.7-73.4,11.6-79.2,3.5-10.3,15.4-24.8,24.5-29.7,4.6-2.6,5.1-2.7,4.6-1-5.8,18.8-4.6,29.5,4.4,39.8,12.8,14.5,35.9,15.4,61.9,2.4l10.5-5.3.3-44.8.2-44.8-3-4.3c-10-14.6-30.1-20.8-50.2-15.7-14.7,3.8-25.1,10.7-38.3,25.3-4.4,4.8-8,8.6-8.2,8.5-.1-.2.5-6.5,1.4-14,1.3-11,1.3-13.9.3-15.2-1.1-1.3-5.6-1.5-31.6-1.5-28.8,0-30.5.1-32.3,1.9-2.5,2.5-2.1.3-8.1,50.6-2.8,23.1-5.5,44-6.1,46.5-4,17.1-25.1,44.2-43.1,55.4-11.1,6.9-20.1,9.7-32.4,10.4-8.6.4-11.3.1-17.4-1.7-6-1.9-8.1-3.1-12.4-7.4-6.3-6.3-8.8-13.2-8.8-24,0-6.1,6-55.4,7.8-64l.6-2.7h31.4c29.9,0,31.5-.1,33.4-2,2.4-2.4,2.3-1.8,5.9-30.3,3.1-24.3,3-27.7-.4-29.1-.9-.3-15.4-.6-32.1-.6s-30.4-.4-30.4-.8c0-.5.7-5.5,1.5-11.3,5.9-42.5,12.5-93.3,12.5-96.6,0-2.1-.5-4.4-1.2-5.1-.9-.9-9.4-1.2-31.9-1.2H185.1Z" transform="translate(78 78)"/>
  </g>
</svg>
